<mxfile host="65bd71144e">
    <diagram name="Seite-1" id="DjCrLJOEe4nHxTjUXNSd">
        <mxGraphModel dx="962" dy="1695" grid="1" gridSize="10" guides="1" tooltips="1" connect="1" arrows="1" fold="1" page="1" pageScale="1" pageWidth="827" pageHeight="1169" math="0" shadow="0">
            <root>
                <mxCell id="0"/>
                <mxCell id="1" parent="0"/>
                <mxCell id="sU0O0qOnpkfrYUOIyIDh-27" value=":DataBroker" style="shape=umlLifeline;perimeter=lifelinePerimeter;whiteSpace=wrap;html=1;container=1;collapsible=0;recursiveResize=0;outlineConnect=0;rounded=1;" parent="1" vertex="1">
                    <mxGeometry x="340" y="40" width="100" height="550" as="geometry"/>
                </mxCell>
                <mxCell id="56O69Gt65AHP2GdqeosO-17" value="" style="html=1;points=[[0,0,0,0,5],[0,1,0,0,-5],[1,0,0,0,5],[1,1,0,0,-5]];perimeter=orthogonalPerimeter;outlineConnect=0;targetShapes=umlLifeline;portConstraint=eastwest;newEdgeStyle={&quot;curved&quot;:0,&quot;rounded&quot;:0};" parent="sU0O0qOnpkfrYUOIyIDh-27" vertex="1">
                    <mxGeometry x="45" y="240" width="10" height="250" as="geometry"/>
                </mxCell>
                <mxCell id="56O69Gt65AHP2GdqeosO-10" value="" style="html=1;points=[[0,0,0,0,5],[0,1,0,0,-5],[1,0,0,0,5],[1,1,0,0,-5]];perimeter=orthogonalPerimeter;outlineConnect=0;targetShapes=umlLifeline;portConstraint=eastwest;newEdgeStyle={&quot;curved&quot;:0,&quot;rounded&quot;:0};" parent="sU0O0qOnpkfrYUOIyIDh-27" vertex="1">
                    <mxGeometry x="40" y="287" width="10" height="40" as="geometry"/>
                </mxCell>
                <mxCell id="sU0O0qOnpkfrYUOIyIDh-33" value=":Signal Consumer" style="shape=umlLifeline;perimeter=lifelinePerimeter;whiteSpace=wrap;html=1;container=1;collapsible=0;recursiveResize=0;outlineConnect=0;rounded=1;" parent="1" vertex="1">
                    <mxGeometry x="40" y="40" width="100" height="550" as="geometry"/>
                </mxCell>
                <mxCell id="56O69Gt65AHP2GdqeosO-4" value="" style="html=1;points=[[0,0,0,0,5],[0,1,0,0,-5],[1,0,0,0,5],[1,1,0,0,-5]];perimeter=orthogonalPerimeter;outlineConnect=0;targetShapes=umlLifeline;portConstraint=eastwest;newEdgeStyle={&quot;curved&quot;:0,&quot;rounded&quot;:0};" parent="sU0O0qOnpkfrYUOIyIDh-33" vertex="1">
                    <mxGeometry x="45" y="287" width="10" height="40" as="geometry"/>
                </mxCell>
                <mxCell id="sU0O0qOnpkfrYUOIyIDh-39" value=":Provider" style="shape=umlLifeline;perimeter=lifelinePerimeter;whiteSpace=wrap;html=1;container=1;collapsible=0;recursiveResize=0;outlineConnect=0;rounded=1;" parent="1" vertex="1">
                    <mxGeometry x="865" y="40" width="100" height="550" as="geometry"/>
                </mxCell>
                <mxCell id="56O69Gt65AHP2GdqeosO-8" value="" style="html=1;points=[[0,0,0,0,5],[0,1,0,0,-5],[1,0,0,0,5],[1,1,0,0,-5]];perimeter=orthogonalPerimeter;outlineConnect=0;targetShapes=umlLifeline;portConstraint=eastwest;newEdgeStyle={&quot;curved&quot;:0,&quot;rounded&quot;:0};" parent="sU0O0qOnpkfrYUOIyIDh-39" vertex="1">
                    <mxGeometry x="44" y="80" width="10" height="410" as="geometry"/>
                </mxCell>
                <mxCell id="56O69Gt65AHP2GdqeosO-18" value="" style="html=1;points=[[0,0,0,0,5],[0,1,0,0,-5],[1,0,0,0,5],[1,1,0,0,-5]];perimeter=orthogonalPerimeter;outlineConnect=0;targetShapes=umlLifeline;portConstraint=eastwest;newEdgeStyle={&quot;curved&quot;:0,&quot;rounded&quot;:0};" parent="sU0O0qOnpkfrYUOIyIDh-39" vertex="1">
                    <mxGeometry x="39" y="240" width="10" height="250" as="geometry"/>
                </mxCell>
                <mxCell id="56O69Gt65AHP2GdqeosO-2" value=":Vehicle Network" style="shape=umlLifeline;perimeter=lifelinePerimeter;whiteSpace=wrap;html=1;container=1;collapsible=0;recursiveResize=0;outlineConnect=0;rounded=1;" parent="1" vertex="1">
                    <mxGeometry x="1098" y="40" width="100" height="550" as="geometry"/>
                </mxCell>
                <mxCell id="56O69Gt65AHP2GdqeosO-5" value="" style="html=1;points=[[0,0,0,0,5],[0,1,0,0,-5],[1,0,0,0,5],[1,1,0,0,-5]];perimeter=orthogonalPerimeter;outlineConnect=0;targetShapes=umlLifeline;portConstraint=eastwest;newEdgeStyle={&quot;curved&quot;:0,&quot;rounded&quot;:0};" parent="56O69Gt65AHP2GdqeosO-2" vertex="1">
                    <mxGeometry x="45" y="80" width="10" height="410" as="geometry"/>
                </mxCell>
                <mxCell id="m9g5u4UzHGlwc12Byzqx-11" value="" style="shape=curlyBracket;whiteSpace=wrap;html=1;rounded=1;flipH=1;labelPosition=right;verticalLabelPosition=middle;align=left;verticalAlign=middle;" parent="56O69Gt65AHP2GdqeosO-2" vertex="1">
                    <mxGeometry x="55" y="80" width="24" height="160" as="geometry"/>
                </mxCell>
                <mxCell id="56O69Gt65AHP2GdqeosO-14" value="" style="endArrow=classic;html=1;rounded=0;" parent="1" edge="1">
                    <mxGeometry relative="1" as="geometry">
                        <mxPoint x="385" y="367" as="sourcePoint"/>
                        <mxPoint x="90" y="367" as="targetPoint"/>
                    </mxGeometry>
                </mxCell>
                <mxCell id="56O69Gt65AHP2GdqeosO-15" value="GetValuesResponse" style="edgeLabel;resizable=0;html=1;;align=center;verticalAlign=middle;" parent="56O69Gt65AHP2GdqeosO-14" connectable="0" vertex="1">
                    <mxGeometry relative="1" as="geometry">
                        <mxPoint y="-9" as="offset"/>
                    </mxGeometry>
                </mxCell>
                <mxCell id="56O69Gt65AHP2GdqeosO-12" value="" style="endArrow=classic;html=1;rounded=0;" parent="1" edge="1">
                    <mxGeometry relative="1" as="geometry">
                        <mxPoint x="90" y="327" as="sourcePoint"/>
                        <mxPoint x="380" y="327" as="targetPoint"/>
                    </mxGeometry>
                </mxCell>
                <mxCell id="56O69Gt65AHP2GdqeosO-13" value="GetValues(GetValuesRequest=signal_paths)" style="edgeLabel;resizable=0;html=1;;align=center;verticalAlign=middle;" parent="56O69Gt65AHP2GdqeosO-12" connectable="0" vertex="1">
                    <mxGeometry relative="1" as="geometry">
                        <mxPoint y="-9" as="offset"/>
                    </mxGeometry>
                </mxCell>
                <mxCell id="56O69Gt65AHP2GdqeosO-24" value="" style="endArrow=classic;html=1;rounded=0;" parent="1" edge="1">
                    <mxGeometry relative="1" as="geometry">
                        <mxPoint x="905" y="280" as="sourcePoint"/>
                        <mxPoint x="395" y="280" as="targetPoint"/>
                    </mxGeometry>
                </mxCell>
                <mxCell id="56O69Gt65AHP2GdqeosO-25" value="OpenProviderStream(&lt;b&gt;&lt;font color=&quot;#007fff&quot;&gt;stream&lt;/font&gt;&lt;/b&gt;&amp;nbsp;OpenProviderStreamRequest=PublishValuesRequest(signal_values))" style="edgeLabel;resizable=0;html=1;;align=center;verticalAlign=middle;" parent="56O69Gt65AHP2GdqeosO-24" connectable="0" vertex="1">
                    <mxGeometry relative="1" as="geometry">
                        <mxPoint y="-8" as="offset"/>
                    </mxGeometry>
                </mxCell>
                <mxCell id="56O69Gt65AHP2GdqeosO-26" value="" style="endArrow=classic;html=1;rounded=0;" parent="1" source="56O69Gt65AHP2GdqeosO-17" edge="1">
                    <mxGeometry relative="1" as="geometry">
                        <mxPoint x="399" y="299" as="sourcePoint"/>
                        <mxPoint x="904" y="299" as="targetPoint"/>
                    </mxGeometry>
                </mxCell>
                <mxCell id="56O69Gt65AHP2GdqeosO-27" value="&lt;b&gt;&lt;font color=&quot;#007fff&quot;&gt;stream&lt;/font&gt;&lt;/b&gt;&amp;nbsp;OpenProviderStreamResponse=PublishValuesResponse" style="edgeLabel;resizable=0;html=1;;align=center;verticalAlign=middle;" parent="56O69Gt65AHP2GdqeosO-26" connectable="0" vertex="1">
                    <mxGeometry relative="1" as="geometry">
                        <mxPoint y="-8" as="offset"/>
                    </mxGeometry>
                </mxCell>
                <mxCell id="56O69Gt65AHP2GdqeosO-36" value="" style="endArrow=classic;html=1;rounded=0;" parent="1" edge="1">
                    <mxGeometry relative="1" as="geometry">
                        <mxPoint x="1142.5" y="120" as="sourcePoint"/>
                        <mxPoint x="915" y="120" as="targetPoint"/>
                    </mxGeometry>
                </mxCell>
                <mxCell id="56O69Gt65AHP2GdqeosO-37" value="recv_data_frame()" style="edgeLabel;resizable=0;html=1;;align=center;verticalAlign=middle;" parent="56O69Gt65AHP2GdqeosO-36" connectable="0" vertex="1">
                    <mxGeometry relative="1" as="geometry">
                        <mxPoint x="13" y="-10" as="offset"/>
                    </mxGeometry>
                </mxCell>
                <mxCell id="56O69Gt65AHP2GdqeosO-47" value="" style="endArrow=classic;html=1;rounded=0;" parent="1" edge="1">
                    <mxGeometry relative="1" as="geometry">
                        <mxPoint x="906" y="440" as="sourcePoint"/>
                        <mxPoint x="395" y="440" as="targetPoint"/>
                    </mxGeometry>
                </mxCell>
                <mxCell id="56O69Gt65AHP2GdqeosO-48" value="&lt;b&gt;&lt;font color=&quot;#007fff&quot;&gt;stream&lt;/font&gt;&lt;/b&gt;&amp;nbsp;OpenProviderStreamRequest=PublishValuesRequest(signal_values)" style="edgeLabel;resizable=0;html=1;;align=center;verticalAlign=middle;" parent="56O69Gt65AHP2GdqeosO-47" connectable="0" vertex="1">
                    <mxGeometry relative="1" as="geometry">
                        <mxPoint y="-8" as="offset"/>
                    </mxGeometry>
                </mxCell>
                <mxCell id="56O69Gt65AHP2GdqeosO-49" value="" style="endArrow=classic;html=1;rounded=0;" parent="1" edge="1">
                    <mxGeometry relative="1" as="geometry">
                        <mxPoint x="395.0000000000002" y="459" as="sourcePoint"/>
                        <mxPoint x="904.5" y="459" as="targetPoint"/>
                    </mxGeometry>
                </mxCell>
                <mxCell id="56O69Gt65AHP2GdqeosO-50" value="&lt;b&gt;&lt;font color=&quot;#007fff&quot;&gt;stream&lt;/font&gt;&lt;/b&gt;&amp;nbsp;OpenProviderStreamResponse=PublishValuesResponse" style="edgeLabel;resizable=0;html=1;;align=center;verticalAlign=middle;" parent="56O69Gt65AHP2GdqeosO-49" connectable="0" vertex="1">
                    <mxGeometry relative="1" as="geometry">
                        <mxPoint y="-8" as="offset"/>
                    </mxGeometry>
                </mxCell>
                <mxCell id="m9g5u4UzHGlwc12Byzqx-1" value="" style="endArrow=classic;html=1;rounded=0;" parent="1" source="56O69Gt65AHP2GdqeosO-5" edge="1">
                    <mxGeometry relative="1" as="geometry">
                        <mxPoint x="1139" y="280" as="sourcePoint"/>
                        <mxPoint x="914" y="280" as="targetPoint"/>
                    </mxGeometry>
                </mxCell>
                <mxCell id="m9g5u4UzHGlwc12Byzqx-2" value="recv_data_frame()" style="edgeLabel;resizable=0;html=1;;align=center;verticalAlign=middle;" parent="m9g5u4UzHGlwc12Byzqx-1" connectable="0" vertex="1">
                    <mxGeometry relative="1" as="geometry">
                        <mxPoint x="13" y="-10" as="offset"/>
                    </mxGeometry>
                </mxCell>
                <mxCell id="m9g5u4UzHGlwc12Byzqx-5" value="" style="endArrow=classic;html=1;rounded=0;" parent="1" source="56O69Gt65AHP2GdqeosO-5" edge="1">
                    <mxGeometry relative="1" as="geometry">
                        <mxPoint x="1140" y="440" as="sourcePoint"/>
                        <mxPoint x="915" y="440" as="targetPoint"/>
                    </mxGeometry>
                </mxCell>
                <mxCell id="m9g5u4UzHGlwc12Byzqx-6" value="recv_data_frame()" style="edgeLabel;resizable=0;html=1;;align=center;verticalAlign=middle;" parent="m9g5u4UzHGlwc12Byzqx-5" connectable="0" vertex="1">
                    <mxGeometry relative="1" as="geometry">
                        <mxPoint x="13" y="-10" as="offset"/>
                    </mxGeometry>
                </mxCell>
                <mxCell id="m9g5u4UzHGlwc12Byzqx-9" value="" style="endArrow=classic;html=1;rounded=0;" parent="1" edge="1">
                    <mxGeometry width="50" height="50" relative="1" as="geometry">
                        <mxPoint x="918" y="280" as="sourcePoint"/>
                        <mxPoint x="898" y="280" as="targetPoint"/>
                        <Array as="points">
                            <mxPoint x="918" y="280"/>
                        </Array>
                    </mxGeometry>
                </mxCell>
                <mxCell id="m9g5u4UzHGlwc12Byzqx-10" value="" style="endArrow=classic;html=1;rounded=0;" parent="1" edge="1">
                    <mxGeometry width="50" height="50" relative="1" as="geometry">
                        <mxPoint x="920" y="440" as="sourcePoint"/>
                        <mxPoint x="900" y="440" as="targetPoint"/>
                        <Array as="points">
                            <mxPoint x="920" y="440"/>
                        </Array>
                    </mxGeometry>
                </mxCell>
                <mxCell id="m9g5u4UzHGlwc12Byzqx-12" value="OEM cycle_time(ms)" style="text;html=1;align=center;verticalAlign=middle;whiteSpace=wrap;rounded=0;" parent="1" vertex="1">
                    <mxGeometry x="1187" y="184" width="83" height="30" as="geometry"/>
                </mxCell>
                <mxCell id="2" value="" style="shape=curlyBracket;whiteSpace=wrap;html=1;rounded=1;flipH=1;labelPosition=right;verticalLabelPosition=middle;align=left;verticalAlign=middle;rotation=-90;" parent="1" vertex="1">
                    <mxGeometry x="1010" y="-100" width="40" height="235" as="geometry"/>
                </mxCell>
                <mxCell id="4" value="OEM protocol design" style="text;html=1;strokeColor=none;fillColor=none;align=center;verticalAlign=middle;whiteSpace=wrap;rounded=0;" parent="1" vertex="1">
                    <mxGeometry x="968" y="-30" width="130" height="30" as="geometry"/>
                </mxCell>
            </root>
        </mxGraphModel>
    </diagram>
</mxfile>
